nColumns=28
nRows=33
DataType=double
version=3
OpenSimVersion=4.1
endheader
time	ground_force_1_vx	ground_force_1_vy	ground_force_1_vz	ground_force_1_px	ground_force_1_py	ground_force_1_pz	ground_force_1_mx	ground_force_1_my	ground_force_1_mz	ground_force_2_vx	ground_force_2_vy	ground_force_2_vz	ground_force_2_px	ground_force_2_py	ground_force_2_pz	ground_force_2_mx	ground_force_2_my	ground_force_2_mz	ground_force_3_vx	ground_force_3_vy	ground_force_3_vz	ground_force_3_px	ground_force_3_py	ground_force_3_pz	ground_force_3_mx	ground_force_3_my	ground_force_3_mz
9.75	-5.07313	256.467	-49.8533	-0.250568	0.006	-0.456453	0	-3.51972	0	6.5906	308.534	50.2618	-0.246297	0.006	-0.827263	0	2.91604	0	0	0	0	0	0	0	0	0	0
9.76	-4.89627	258.805	-49.7266	-0.249261	0.006	-0.455901	0	-3.32386	0	6.35905	304.551	49.222	-0.245734	0.006	-0.827356	0	2.87302	0	0	0	0	0	0	0	0	0	0
9.77	-4.68839	261.557	-49.5043	-0.247957	0.006	-0.45542	0	-3.11739	0	6.13451	301.097	48.1668	-0.245156	0.006	-0.827408	0	2.82489	0	0	0	0	0	0	0	0	0	0
9.78	-4.4434	264.686	-49.1953	-0.246673	0.006	-0.455011	0	-2.9043	0	5.91307	298.169	47.1161	-0.24458	0.006	-0.827421	0	2.77324	0	0	0	0	0	0	0	0	0	0
9.79	-4.15944	268.148	-48.8117	-0.245425	0.006	-0.45467	0	-2.68871	0	5.68825	295.771	46.0886	-0.244019	0.006	-0.827397	0	2.71954	0	0	0	0	0	0	0	0	0	0
9.8	-3.8385	271.906	-48.3679	-0.244227	0.006	-0.45439	0	-2.4748	0	5.45241	293.904	45.1005	-0.243487	0.006	-0.827337	0	2.66511	0	0	0	0	0	0	0	0	0	0
9.81	-3.48628	275.937	-47.8814	-0.243089	0.006	-0.454164	0	-2.26672	0	5.19741	292.572	44.1652	-0.242997	0.006	-0.827242	0	2.61099	0	0	0	0	0	0	0	0	0	0
9.82	-3.11162	280.234	-47.372	-0.242022	0.006	-0.453985	0	-2.06833	0	4.91782	291.778	43.292	-0.24256	0.006	-0.827114	0	2.55806	0	0	0	0	0	0	0	0	0	0
9.83	-2.72764	284.814	-46.8628	-0.241036	0.006	-0.45385	0	-1.88294	0	4.61323	291.52	42.4862	-0.242188	0.006	-0.826954	0	2.5072	0	0	0	0	0	0	0	0	0	0
9.84	-2.3522	289.722	-46.3786	-0.240142	0.006	-0.453754	0	-1.71306	0	4.28808	291.786	41.75	-0.241893	0.006	-0.826763	0	2.45921	0	0	0	0	0	0	0	0	0	0
9.85	-2.005	295.015	-45.9437	-0.23935	0.006	-0.453696	0	-1.56051	0	3.95008	292.555	41.0827	-0.241684	0.006	-0.826545	0	2.41472	0	0	0	0	0	0	0	0	0	0
9.86	-1.70478	300.744	-45.5804	-0.238668	0.006	-0.453672	0	-1.42641	0	3.60756	293.789	40.4813	-0.241571	0.006	-0.826303	0	2.37414	0	0	0	0	0	0	0	0	0	0
9.87	-1.46686	306.94	-45.3062	-0.238102	0.006	-0.45368	0	-1.31119	0	3.26673	295.44	39.9417	-0.241555	0.006	-0.82604	0	2.33752	0	0	0	0	0	0	0	0	0	0
9.88	-1.29994	313.599	-45.1325	-0.237652	0.006	-0.453716	0	-1.21465	0	2.93042	297.449	39.4603	-0.241635	0.006	-0.825759	0	2.30451	0	0	0	0	0	0	0	0	0	0
9.89	-1.20721	320.679	-45.0638	-0.237318	0.006	-0.453776	0	-1.13601	0	2.59857	299.75	39.0331	-0.2418	0.006	-0.825467	0	2.27442	0	0	0	0	0	0	0	0	0	0
9.9	-1.18876	328.108	-45.0981	-0.237093	0.006	-0.453856	0	-1.07403	0	2.26854	302.274	38.656	-0.24204	0.006	-0.825166	0	2.24643	0	0	0	0	0	0	0	0	0	0
9.91	-1.24345	335.796	-45.2265	-0.236969	0.006	-0.453953	0	-1.02713	0	1.9347	304.949	38.3229	-0.242339	0.006	-0.824859	0	2.21979	0	0	0	0	0	0	0	0	0	0
9.92	-1.36923	343.632	-45.434	-0.236936	0.006	-0.454063	0	-0.993579	0	1.58953	307.711	38.0257	-0.242683	0.006	-0.824547	0	2.194	0	0	0	0	0	0	0	0	0	0
9.93	-1.55993	351.49	-45.6997	-0.236984	0.006	-0.454184	0	-0.971728	0	1.22608	310.498	37.7556	-0.243056	0.006	-0.824234	0	2.16886	0	0	0	0	0	0	0	0	0	0
9.94	-1.80204	359.227	-45.9988	-0.237105	0.006	-0.454312	0	-0.960014	0	0.840827	313.254	37.5043	-0.243447	0.006	-0.823922	0	2.14454	0	0	0	0	0	0	0	0	0	0
9.95	-2.07488	366.695	-46.3059	-0.237294	0.006	-0.454446	0	-0.957037	0	0.436222	315.926	37.2652	-0.243846	0.006	-0.823614	0	2.12157	0	0	0	0	0	0	0	0	0	0
9.96	-2.35289	373.744	-46.5958	-0.237544	0.006	-0.454583	0	-0.961661	0	0.0194966	318.466	37.0347	-0.244247	0.006	-0.823316	0	2.10076	0	0	0	0	0	0	0	0	0	0
9.97	-2.60853	380.236	-46.846	-0.237851	0.006	-0.454719	0	-0.973019	0	-0.399503	320.829	36.8132	-0.244642	0.006	-0.82303	0	2.08311	0	0	0	0	0	0	0	0	0	0
9.98	-2.81574	386.056	-47.0374	-0.238213	0.006	-0.454853	0	-0.990401	0	-0.809503	322.977	36.6038	-0.245028	0.006	-0.822764	0	2.06971	0	0	0	0	0	0	0	0	0	0
9.99	-2.94989	391.114	-47.1543	-0.238627	0.006	-0.454984	0	-1.0132	0	-1.19795	324.88	36.4111	-0.245406	0.006	-0.822521	0	2.06163	0	0	0	0	0	0	0	0	0	0
10	-2.98621	395.352	-47.1853	-0.239095	0.006	-0.455111	0	-1.04099	0	-1.5487	326.517	36.2381	-0.245778	0.006	-0.822306	0	2.05988	0	0	0	0	0	0	0	0	0	0
10.01	-2.9001	398.742	-47.1247	-0.239617	0.006	-0.455232	0	-1.07348	0	-1.84066	327.882	36.0845	-0.246149	0.006	-0.822121	0	2.06547	0	0	0	0	0	0	0	0	0	0
10.02	-2.66964	401.291	-46.9727	-0.240197	0.006	-0.455346	0	-1.11046	0	-2.04824	328.981	35.9466	-0.246528	0.006	-0.821966	0	2.07933	0	0	0	0	0	0	0	0	0	0
10.03	-2.2792	403.042	-46.7359	-0.240833	0.006	-0.455451	0	-1.1515	0	-2.14379	329.832	35.8191	-0.246922	0.006	-0.821841	0	2.10215	0	0	0	0	0	0	0	0	0	0
10.04	-1.7209	404.075	-46.4258	-0.241524	0.006	-0.455546	0	-1.19594	0	-2.10271	330.464	35.6978	-0.247338	0.006	-0.821743	0	2.13404	0	0	0	0	0	0	0	0	0	0
10.05	-0.993975	404.5	-46.0584	-0.242263	0.006	-0.455629	0	-1.2429	0	-1.90748	330.911	35.5808	-0.247779	0.006	-0.821673	0	2.17446	0	0	0	0	0	0	0	0	0	0
10.06	-0.103038	404.452	-45.6522	-0.243041	0.006	-0.455699	0	-1.29137	0	-1.54932	331.219	35.4695	-0.248243	0.006	-0.821629	0	2.22235	0	0	0	0	0	0	0	0	0	0
10.07	0.941061	404.08	-45.2283	-0.243844	0.006	-0.455754	0	-1.34025	0	-1.02974	331.436	35.369	-0.248721	0.006	-0.821612	0	2.27616	0	0	0	0	0	0	0	0	0	0
